<mxfile host="app.diagrams.net" modified="2024-04-10T10:25:11.503Z" agent="Mozilla/5.0 (X11; Ubuntu; Linux x86_64; rv:124.0) Gecko/20100101 Firefox/124.0" etag="4aZWEDfAbzATWZH2LvmG" version="23.1.1" type="github">
  <diagram name="Page-1" id="fXT3vuanvutzZHE2cfc6">
    <mxGraphModel dx="1434" dy="822" grid="1" gridSize="10" guides="1" tooltips="1" connect="1" arrows="1" fold="1" page="1" pageScale="1" pageWidth="1100" pageHeight="850" math="0" shadow="0">
      <root>
        <mxCell id="0" />
        <mxCell id="1" parent="0" />
        <mxCell id="ryT2o7gFrRwiRls5OtG9-1" value="&lt;div&gt;cam&lt;/div&gt;" style="triangle;whiteSpace=wrap;html=1;fillColor=#fff2cc;strokeColor=#d6b656;" parent="1" vertex="1">
          <mxGeometry x="40" y="480" width="60" height="80" as="geometry" />
        </mxCell>
        <mxCell id="ryT2o7gFrRwiRls5OtG9-2" value="img lib" style="shape=step;perimeter=stepPerimeter;whiteSpace=wrap;html=1;fixedSize=1;fillColor=#fff2cc;strokeColor=#d6b656;" parent="1" vertex="1">
          <mxGeometry x="100" y="480" width="140" height="80" as="geometry" />
        </mxCell>
        <mxCell id="ryT2o7gFrRwiRls5OtG9-16" style="edgeStyle=orthogonalEdgeStyle;rounded=0;orthogonalLoop=1;jettySize=auto;html=1;entryX=0;entryY=0.5;entryDx=0;entryDy=0;" parent="1" source="ryT2o7gFrRwiRls5OtG9-3" target="ryT2o7gFrRwiRls5OtG9-4" edge="1">
          <mxGeometry relative="1" as="geometry" />
        </mxCell>
        <mxCell id="ryT2o7gFrRwiRls5OtG9-3" value="FC" style="whiteSpace=wrap;html=1;aspect=fixed;fillColor=#f5f5f5;fontColor=#333333;strokeColor=#666666;" parent="1" vertex="1">
          <mxGeometry x="820" y="220" width="80" height="80" as="geometry" />
        </mxCell>
        <mxCell id="ryT2o7gFrRwiRls5OtG9-4" value="&lt;div&gt;ESC&lt;/div&gt;" style="whiteSpace=wrap;html=1;aspect=fixed;fillColor=#f5f5f5;fontColor=#333333;strokeColor=#666666;" parent="1" vertex="1">
          <mxGeometry x="940" y="220" width="80" height="80" as="geometry" />
        </mxCell>
        <mxCell id="ryT2o7gFrRwiRls5OtG9-5" value="mic" style="triangle;whiteSpace=wrap;html=1;fillColor=#fff2cc;strokeColor=#d6b656;" parent="1" vertex="1">
          <mxGeometry x="40" y="360" width="60" height="80" as="geometry" />
        </mxCell>
        <mxCell id="ryT2o7gFrRwiRls5OtG9-6" value="snd lib" style="shape=step;perimeter=stepPerimeter;whiteSpace=wrap;html=1;fixedSize=1;fillColor=#fff2cc;strokeColor=#d6b656;" parent="1" vertex="1">
          <mxGeometry x="100" y="360" width="140" height="80" as="geometry" />
        </mxCell>
        <mxCell id="ryT2o7gFrRwiRls5OtG9-7" value="m0" style="strokeWidth=2;html=1;shape=mxgraph.flowchart.start_2;whiteSpace=wrap;" parent="1" vertex="1">
          <mxGeometry x="920" y="160" width="40" height="40" as="geometry" />
        </mxCell>
        <mxCell id="ryT2o7gFrRwiRls5OtG9-8" value="m3" style="strokeWidth=2;html=1;shape=mxgraph.flowchart.start_2;whiteSpace=wrap;" parent="1" vertex="1">
          <mxGeometry x="1000" y="160" width="40" height="40" as="geometry" />
        </mxCell>
        <mxCell id="ryT2o7gFrRwiRls5OtG9-9" value="&lt;div&gt;m1&lt;/div&gt;" style="strokeWidth=2;html=1;shape=mxgraph.flowchart.start_2;whiteSpace=wrap;" parent="1" vertex="1">
          <mxGeometry x="920" y="320" width="40" height="40" as="geometry" />
        </mxCell>
        <mxCell id="ryT2o7gFrRwiRls5OtG9-10" value="&lt;div&gt;m2&lt;/div&gt;" style="strokeWidth=2;html=1;shape=mxgraph.flowchart.start_2;whiteSpace=wrap;" parent="1" vertex="1">
          <mxGeometry x="1000" y="320" width="40" height="40" as="geometry" />
        </mxCell>
        <mxCell id="ryT2o7gFrRwiRls5OtG9-15" style="edgeStyle=orthogonalEdgeStyle;rounded=0;orthogonalLoop=1;jettySize=auto;html=1;entryX=0.5;entryY=0;entryDx=0;entryDy=0;" parent="1" source="ryT2o7gFrRwiRls5OtG9-11" target="ryT2o7gFrRwiRls5OtG9-3" edge="1">
          <mxGeometry relative="1" as="geometry" />
        </mxCell>
        <mxCell id="ryT2o7gFrRwiRls5OtG9-11" value="&lt;div align=&quot;left&quot;&gt;&lt;br&gt;&lt;/div&gt;&lt;div align=&quot;left&quot;&gt;&lt;br&gt;&lt;/div&gt;&lt;div align=&quot;left&quot;&gt;&lt;br&gt;&lt;/div&gt;&lt;div align=&quot;left&quot;&gt;SNSORS - HRW&lt;br&gt;&lt;/div&gt;&lt;div align=&quot;left&quot;&gt;&lt;ul&gt;&lt;li&gt;IMU&lt;/li&gt;&lt;li&gt;GPS&lt;/li&gt;&lt;li&gt;BAR&lt;/li&gt;&lt;li&gt;COMP&lt;/li&gt;&lt;/ul&gt;&lt;/div&gt;&lt;div&gt;&lt;br&gt;&lt;/div&gt;&lt;div&gt;&lt;br&gt;&lt;/div&gt;" style="whiteSpace=wrap;html=1;aspect=fixed;fillColor=#f5f5f5;fontColor=#333333;strokeColor=#666666;" parent="1" vertex="1">
          <mxGeometry x="640" y="80" width="140" height="140" as="geometry" />
        </mxCell>
        <mxCell id="ryT2o7gFrRwiRls5OtG9-17" value="&lt;div align=&quot;left&quot;&gt;&lt;br&gt;&lt;/div&gt;&lt;div align=&quot;left&quot;&gt;&lt;br&gt;&lt;/div&gt;&lt;div align=&quot;left&quot;&gt;&lt;br&gt;&lt;/div&gt;&lt;div align=&quot;left&quot;&gt;SNSORS - AI&lt;br&gt;&lt;/div&gt;&lt;div align=&quot;left&quot;&gt;&lt;ul&gt;&lt;li&gt;STRUC LIGHT&lt;/li&gt;&lt;li&gt;IMG PROC&lt;/li&gt;&lt;/ul&gt;&lt;/div&gt;&lt;div&gt;&lt;br&gt;&lt;/div&gt;&lt;div&gt;&lt;br&gt;&lt;/div&gt;" style="whiteSpace=wrap;html=1;aspect=fixed;fillColor=#dae8fc;strokeColor=#6c8ebf;strokeWidth=4;glass=0;" parent="1" vertex="1">
          <mxGeometry x="460" y="80" width="140" height="140" as="geometry" />
        </mxCell>
        <mxCell id="ryT2o7gFrRwiRls5OtG9-20" value="RF - IN" style="triangle;whiteSpace=wrap;html=1;fillColor=#e1d5e7;strokeColor=#9673a6;" parent="1" vertex="1">
          <mxGeometry x="40" y="600" width="60" height="80" as="geometry" />
        </mxCell>
        <mxCell id="ryT2o7gFrRwiRls5OtG9-21" value="&lt;div&gt;PILOT&amp;nbsp;&lt;/div&gt;&lt;div&gt;CMDS&lt;/div&gt;" style="shape=step;perimeter=stepPerimeter;whiteSpace=wrap;html=1;fixedSize=1;fillColor=#e1d5e7;strokeColor=#9673a6;" parent="1" vertex="1">
          <mxGeometry x="100" y="600" width="140" height="80" as="geometry" />
        </mxCell>
        <mxCell id="ryT2o7gFrRwiRls5OtG9-22" value="Vtx" style="whiteSpace=wrap;html=1;aspect=fixed;fillColor=#fff2cc;strokeColor=#d6b656;" parent="1" vertex="1">
          <mxGeometry x="830" y="360" width="60" height="60" as="geometry" />
        </mxCell>
        <mxCell id="ryT2o7gFrRwiRls5OtG9-23" value="&lt;div&gt;RF&lt;/div&gt;&lt;div&gt;OUT&lt;/div&gt;" style="triangle;whiteSpace=wrap;html=1;rotation=-90;fillColor=#fff2cc;strokeColor=#d6b656;" parent="1" vertex="1">
          <mxGeometry x="830" y="400" width="60" height="80" as="geometry" />
        </mxCell>
        <mxCell id="ryT2o7gFrRwiRls5OtG9-33" style="edgeStyle=orthogonalEdgeStyle;rounded=0;orthogonalLoop=1;jettySize=auto;html=1;entryX=0;entryY=0.5;entryDx=0;entryDy=0;exitX=0;exitY=0.5;exitDx=0;exitDy=0;fillColor=#e1d5e7;strokeColor=#9673a6;strokeWidth=2;dashed=1;dashPattern=1 1;" parent="1" source="ryT2o7gFrRwiRls5OtG9-34" target="ryT2o7gFrRwiRls5OtG9-20" edge="1">
          <mxGeometry relative="1" as="geometry">
            <mxPoint x="610" y="730" as="sourcePoint" />
          </mxGeometry>
        </mxCell>
        <mxCell id="ryT2o7gFrRwiRls5OtG9-34" value="" style="whiteSpace=wrap;html=1;aspect=fixed;fillColor=#e1d5e7;strokeColor=#9673a6;" parent="1" vertex="1">
          <mxGeometry x="550" y="700" width="60" height="60" as="geometry" />
        </mxCell>
        <mxCell id="ryT2o7gFrRwiRls5OtG9-36" value="" style="endArrow=classic;html=1;rounded=0;exitX=0;exitY=0;exitDx=0;exitDy=10;exitPerimeter=0;entryX=0;entryY=0.5;entryDx=0;entryDy=0;strokeWidth=2;fillColor=#e1d5e7;strokeColor=#9673a6;dashed=1;" parent="1" source="ryT2o7gFrRwiRls5OtG9-35" target="ryT2o7gFrRwiRls5OtG9-3" edge="1">
          <mxGeometry width="50" height="50" relative="1" as="geometry">
            <mxPoint x="500" y="500" as="sourcePoint" />
            <mxPoint x="550" y="450" as="targetPoint" />
            <Array as="points">
              <mxPoint x="520" y="640" />
              <mxPoint x="680" y="260" />
            </Array>
          </mxGeometry>
        </mxCell>
        <mxCell id="ryT2o7gFrRwiRls5OtG9-37" value="" style="group;strokeWidth=4;strokeColor=none;" parent="1" vertex="1" connectable="0">
          <mxGeometry x="240" y="360" width="140" height="320" as="geometry" />
        </mxCell>
        <mxCell id="ryT2o7gFrRwiRls5OtG9-18" value="&lt;div&gt;&amp;nbsp;DRONE AI&lt;/div&gt;" style="shape=step;perimeter=stepPerimeter;whiteSpace=wrap;html=1;fixedSize=1;fillColor=#dae8fc;strokeColor=#6c8ebf;movable=1;resizable=1;rotatable=1;deletable=1;editable=1;locked=0;connectable=1;strokeWidth=4;" parent="ryT2o7gFrRwiRls5OtG9-37" vertex="1">
          <mxGeometry width="140" height="320" as="geometry" />
        </mxCell>
        <mxCell id="ryT2o7gFrRwiRls5OtG9-35" value="" style="shape=tee;whiteSpace=wrap;html=1;rotation=-180;fillColor=#e1d5e7;strokeColor=#9673a6;movable=1;resizable=1;rotatable=1;deletable=1;editable=1;locked=0;connectable=1;" parent="ryT2o7gFrRwiRls5OtG9-37" vertex="1">
          <mxGeometry y="250" width="130" height="40" as="geometry" />
        </mxCell>
        <mxCell id="ryT2o7gFrRwiRls5OtG9-43" value="" style="shape=sumEllipse;perimeter=ellipsePerimeter;whiteSpace=wrap;html=1;backgroundOutline=1;" parent="ryT2o7gFrRwiRls5OtG9-37" vertex="1">
          <mxGeometry x="45" y="220" width="40" height="40" as="geometry" />
        </mxCell>
        <mxCell id="ryT2o7gFrRwiRls5OtG9-38" value="SND &amp;amp; AV out" style="shape=step;perimeter=stepPerimeter;whiteSpace=wrap;html=1;fixedSize=1;fillColor=#fff2cc;strokeColor=#d6b656;" parent="1" vertex="1">
          <mxGeometry x="400" y="480" width="140" height="80" as="geometry" />
        </mxCell>
        <mxCell id="ryT2o7gFrRwiRls5OtG9-42" value="" style="endArrow=classic;html=1;rounded=0;exitX=1;exitY=0.5;exitDx=0;exitDy=0;entryX=0;entryY=0.5;entryDx=0;entryDy=0;fillColor=#fff2cc;strokeColor=#d6b656;strokeWidth=2;dashed=1;" parent="1" source="ryT2o7gFrRwiRls5OtG9-38" target="ryT2o7gFrRwiRls5OtG9-22" edge="1">
          <mxGeometry width="50" height="50" relative="1" as="geometry">
            <mxPoint x="500" y="420" as="sourcePoint" />
            <mxPoint x="550" y="370" as="targetPoint" />
            <Array as="points">
              <mxPoint x="720" y="520" />
            </Array>
          </mxGeometry>
        </mxCell>
        <mxCell id="ryT2o7gFrRwiRls5OtG9-62" value="&lt;div&gt;AI TAGGED&amp;nbsp; FRAMES&lt;/div&gt;" style="edgeLabel;html=1;align=center;verticalAlign=middle;resizable=0;points=[];textOpacity=10;" parent="ryT2o7gFrRwiRls5OtG9-42" vertex="1" connectable="0">
          <mxGeometry x="-0.3834" y="-1" relative="1" as="geometry">
            <mxPoint as="offset" />
          </mxGeometry>
        </mxCell>
        <mxCell id="ryT2o7gFrRwiRls5OtG9-47" value="" style="group;rotation=-180;" parent="1" vertex="1" connectable="0">
          <mxGeometry x="750" y="580" width="80" height="110" as="geometry" />
        </mxCell>
        <mxCell id="ryT2o7gFrRwiRls5OtG9-45" value="&lt;div&gt;Vrx&lt;/div&gt;" style="whiteSpace=wrap;html=1;aspect=fixed;fillColor=#fff2cc;strokeColor=#d6b656;rotation=-180;" parent="ryT2o7gFrRwiRls5OtG9-47" vertex="1">
          <mxGeometry x="10" y="50" width="60" height="60" as="geometry" />
        </mxCell>
        <mxCell id="ryT2o7gFrRwiRls5OtG9-46" value="&lt;div&gt;RF&lt;/div&gt;&lt;div&gt;IN&lt;/div&gt;" style="triangle;whiteSpace=wrap;html=1;rotation=-270;fillColor=#fff2cc;strokeColor=#d6b656;" parent="ryT2o7gFrRwiRls5OtG9-47" vertex="1">
          <mxGeometry x="10" y="-10" width="60" height="80" as="geometry" />
        </mxCell>
        <mxCell id="ryT2o7gFrRwiRls5OtG9-52" value="" style="endArrow=classic;startArrow=classic;html=1;rounded=0;entryX=0;entryY=0.5;entryDx=0;entryDy=0;exitX=0.45;exitY=0.003;exitDx=0;exitDy=0;exitPerimeter=0;" parent="1" source="ryT2o7gFrRwiRls5OtG9-18" target="ryT2o7gFrRwiRls5OtG9-17" edge="1">
          <mxGeometry width="50" height="50" relative="1" as="geometry">
            <mxPoint x="500" y="470" as="sourcePoint" />
            <mxPoint x="550" y="420" as="targetPoint" />
          </mxGeometry>
        </mxCell>
        <mxCell id="ryT2o7gFrRwiRls5OtG9-53" value="" style="endArrow=classic;html=1;rounded=0;entryX=0;entryY=0.5;entryDx=0;entryDy=0;exitX=0;exitY=0.5;exitDx=0;exitDy=0;dashed=1;dashPattern=12 12;" parent="1" source="ryT2o7gFrRwiRls5OtG9-23" target="ryT2o7gFrRwiRls5OtG9-46" edge="1">
          <mxGeometry width="50" height="50" relative="1" as="geometry">
            <mxPoint x="500" y="500" as="sourcePoint" />
            <mxPoint x="550" y="450" as="targetPoint" />
          </mxGeometry>
        </mxCell>
        <mxCell id="ryT2o7gFrRwiRls5OtG9-57" value="" style="endArrow=classic;html=1;rounded=0;entryX=1;entryY=0.5;entryDx=0;entryDy=0;strokeWidth=2;fillColor=#fff2cc;strokeColor=#d6b656;dashed=1;exitX=1;exitY=0.5;exitDx=0;exitDy=0;" parent="1" source="ryT2o7gFrRwiRls5OtG9-45" target="ryT2o7gFrRwiRls5OtG9-54" edge="1">
          <mxGeometry width="50" height="50" relative="1" as="geometry">
            <mxPoint x="810" y="710" as="sourcePoint" />
            <mxPoint x="690" y="720" as="targetPoint" />
          </mxGeometry>
        </mxCell>
        <mxCell id="ryT2o7gFrRwiRls5OtG9-58" value="&lt;div&gt;HIVE AI&lt;/div&gt;" style="rounded=1;whiteSpace=wrap;html=1;fillColor=#dae8fc;strokeColor=#6c8ebf;strokeWidth=4;" parent="1" vertex="1">
          <mxGeometry x="920" y="690" width="160" height="110" as="geometry" />
        </mxCell>
        <mxCell id="ryT2o7gFrRwiRls5OtG9-59" value="" style="endArrow=classic;html=1;rounded=0;entryX=0;entryY=0.25;entryDx=0;entryDy=0;strokeWidth=2;fillColor=#fff2cc;strokeColor=#d6b656;dashed=1;exitX=0;exitY=0.5;exitDx=0;exitDy=0;textOpacity=10;" parent="1" source="ryT2o7gFrRwiRls5OtG9-45" target="ryT2o7gFrRwiRls5OtG9-58" edge="1">
          <mxGeometry width="50" height="50" relative="1" as="geometry">
            <mxPoint x="1000" y="650" as="sourcePoint" />
            <mxPoint x="950" y="660" as="targetPoint" />
          </mxGeometry>
        </mxCell>
        <mxCell id="ryT2o7gFrRwiRls5OtG9-60" value="" style="endArrow=classic;startArrow=classic;html=1;rounded=0;exitX=0.5;exitY=1;exitDx=0;exitDy=0;entryX=0;entryY=0.545;entryDx=0;entryDy=0;entryPerimeter=0;strokeWidth=2;fillColor=#e1d5e7;strokeColor=#9673a6;dashed=1;dashPattern=1 1;" parent="1" source="ryT2o7gFrRwiRls5OtG9-34" target="ryT2o7gFrRwiRls5OtG9-58" edge="1">
          <mxGeometry width="50" height="50" relative="1" as="geometry">
            <mxPoint x="720" y="740" as="sourcePoint" />
            <mxPoint x="910" y="750" as="targetPoint" />
            <Array as="points">
              <mxPoint x="580" y="820" />
              <mxPoint x="840" y="820" />
            </Array>
          </mxGeometry>
        </mxCell>
        <mxCell id="ryT2o7gFrRwiRls5OtG9-61" value="" style="group" parent="1" vertex="1" connectable="0">
          <mxGeometry x="600" y="660" width="110" height="130" as="geometry" />
        </mxCell>
        <mxCell id="ryT2o7gFrRwiRls5OtG9-27" value="Actor" style="shape=umlActor;verticalLabelPosition=bottom;verticalAlign=top;html=1;outlineConnect=0;" parent="ryT2o7gFrRwiRls5OtG9-61" vertex="1">
          <mxGeometry width="70" height="130" as="geometry" />
        </mxCell>
        <mxCell id="ryT2o7gFrRwiRls5OtG9-30" value="&lt;div&gt;PILOT&lt;/div&gt;" style="text;html=1;align=center;verticalAlign=middle;resizable=0;points=[];autosize=1;strokeColor=none;fillColor=none;" parent="ryT2o7gFrRwiRls5OtG9-61" vertex="1">
          <mxGeometry x="5" y="90" width="60" height="30" as="geometry" />
        </mxCell>
        <mxCell id="ryT2o7gFrRwiRls5OtG9-54" value="SND / LCD" style="rounded=1;whiteSpace=wrap;html=1;fillColor=#fff2cc;strokeColor=#d6b656;" parent="ryT2o7gFrRwiRls5OtG9-61" vertex="1">
          <mxGeometry x="40" y="-10" width="70" height="40" as="geometry" />
        </mxCell>
        <mxCell id="ryT2o7gFrRwiRls5OtG9-64" value="TF LITE MODELS" style="shape=process;whiteSpace=wrap;html=1;backgroundOutline=1;fillColor=#dae8fc;strokeColor=#6c8ebf;strokeWidth=4;" parent="1" vertex="1">
          <mxGeometry x="400" y="360" width="160" height="60" as="geometry" />
        </mxCell>
        <mxCell id="ryT2o7gFrRwiRls5OtG9-65" value="" style="endArrow=classic;startArrow=classic;html=1;rounded=0;entryX=0;entryY=0.5;entryDx=0;entryDy=0;exitX=1;exitY=0.25;exitDx=0;exitDy=0;" parent="1" source="ryT2o7gFrRwiRls5OtG9-18" target="ryT2o7gFrRwiRls5OtG9-64" edge="1">
          <mxGeometry width="50" height="50" relative="1" as="geometry">
            <mxPoint x="570" y="490" as="sourcePoint" />
            <mxPoint x="620" y="440" as="targetPoint" />
          </mxGeometry>
        </mxCell>
        <mxCell id="n2oy-H6I7TYns77ilxJf-6" value="" style="edgeStyle=orthogonalEdgeStyle;rounded=0;orthogonalLoop=1;jettySize=auto;html=1;strokeWidth=2;" parent="1" source="ryT2o7gFrRwiRls5OtG9-66" edge="1">
          <mxGeometry relative="1" as="geometry">
            <mxPoint x="1000" y="690" as="targetPoint" />
          </mxGeometry>
        </mxCell>
        <mxCell id="ryT2o7gFrRwiRls5OtG9-66" value="TF MODELS" style="shape=process;whiteSpace=wrap;html=1;backgroundOutline=1;fillColor=#dae8fc;strokeColor=#6c8ebf;strokeWidth=4;" parent="1" vertex="1">
          <mxGeometry x="920" y="590" width="160" height="60" as="geometry" />
        </mxCell>
        <mxCell id="n2oy-H6I7TYns77ilxJf-7" value="&lt;font style=&quot;font-size: 24px;&quot;&gt;HIVE AI IN THE LOOP&lt;/font&gt;" style="text;strokeColor=none;align=center;fillColor=none;html=1;verticalAlign=middle;whiteSpace=wrap;rounded=0;" parent="1" vertex="1">
          <mxGeometry x="40" y="40" width="280" height="40" as="geometry" />
        </mxCell>
        <mxCell id="n2oy-H6I7TYns77ilxJf-8" value="OBJ. TRACKING" style="shape=process;whiteSpace=wrap;html=1;backgroundOutline=1;fillColor=#dae8fc;strokeColor=#6c8ebf;strokeWidth=4;opacity=10;textOpacity=10;" parent="1" vertex="1">
          <mxGeometry x="440" y="260" width="160" height="60" as="geometry" />
        </mxCell>
        <mxCell id="n2oy-H6I7TYns77ilxJf-9" value="" style="endArrow=classic;startArrow=classic;html=1;rounded=0;entryX=0;entryY=0.5;entryDx=0;entryDy=0;opacity=10;textOpacity=10;" parent="1" target="n2oy-H6I7TYns77ilxJf-8" edge="1">
          <mxGeometry width="50" height="50" relative="1" as="geometry">
            <mxPoint x="360" y="360" as="sourcePoint" />
            <mxPoint x="660" y="340" as="targetPoint" />
          </mxGeometry>
        </mxCell>
        <mxCell id="Zxs31MVd2mEnDbDgq2Lo-2" value="" style="endArrow=classic;html=1;rounded=0;exitX=0.25;exitY=1;exitDx=0;exitDy=0;entryX=0.957;entryY=0.345;entryDx=0;entryDy=0;entryPerimeter=0;" parent="1" source="ryT2o7gFrRwiRls5OtG9-11" target="ryT2o7gFrRwiRls5OtG9-18" edge="1">
          <mxGeometry width="50" height="50" relative="1" as="geometry">
            <mxPoint x="610" y="460" as="sourcePoint" />
            <mxPoint x="660" y="410" as="targetPoint" />
            <Array as="points">
              <mxPoint x="570" y="470" />
            </Array>
          </mxGeometry>
        </mxCell>
        <mxCell id="0P7V8_lbp86NWPsEJCMJ-2" value="" style="shape=flexArrow;endArrow=classic;startArrow=classic;html=1;rounded=0;fillColor=#7EA6E0;" edge="1" parent="1">
          <mxGeometry width="100" height="100" relative="1" as="geometry">
            <mxPoint x="390" y="790" as="sourcePoint" />
            <mxPoint x="670" y="520" as="targetPoint" />
          </mxGeometry>
        </mxCell>
      </root>
    </mxGraphModel>
  </diagram>
</mxfile>
